<?xml version="1.0" standalone="no"?>
<!DOCTYPE svg PUBLIC "-//W3C//DTD SVG 20010904//EN"
 "http://www.w3.org/TR/2001/REC-SVG-20010904/DTD/svg10.dtd">
<svg version="1.0" xmlns="http://www.w3.org/2000/svg"
 width="1024.000000pt" height="1024.000000pt" viewBox="0 0 1024.000000 1024.000000"
 preserveAspectRatio="xMidYMid meet">
<metadata>
Created by potrace 1.11, written by Peter Selinger 2001-2013
</metadata>
<g transform="translate(0.000000,1024.000000) scale(0.100000,-0.100000)"
fill="#000000" stroke="none">
<path d="M4917 10154 c-1 -1 -51 -4 -112 -8 -60 -3 -126 -8 -145 -11 -19 -2
-62 -6 -95 -10 -97 -9 -147 -15 -200 -25 -27 -5 -66 -11 -85 -14 -28 -4 -167
-30 -215 -40 -152 -32 -380 -95 -540 -148 -115 -38 -230 -81 -239 -90 -6 -4
-16 -8 -24 -8 -31 0 -384 -165 -567 -265 -158 -87 -477 -290 -562 -359 -10 -8
-63 -49 -118 -92 -244 -189 -515 -447 -720 -688 -27 -32 -57 -66 -65 -76 -85
-100 -255 -335 -364 -503 -42 -64 -76 -119 -76 -121 0 -3 -21 -40 -47 -83 -60
-101 -199 -380 -253 -508 -150 -354 -269 -747 -325 -1075 -9 -52 -18 -106 -20
-120 -4 -21 -23 -165 -39 -300 -26 -211 -26 -739 0 -983 17 -159 51 -391 75
-502 27 -130 81 -352 101 -415 15 -47 20 -65 18 -65 -2 0 109 -318 119 -340 5
-11 21 -51 36 -90 16 -38 32 -74 37 -79 4 -6 8 -16 8 -22 0 -19 151 -326 221
-450 152 -270 343 -549 503 -739 28 -33 62 -73 76 -89 73 -87 128 -146 275
-291 179 -177 205 -201 320 -295 44 -36 82 -68 85 -71 3 -3 55 -42 115 -87 61
-45 115 -85 120 -89 41 -32 212 -143 315 -205 325 -195 638 -338 1015 -463
163 -54 479 -139 595 -159 19 -3 46 -8 60 -11 14 -3 41 -8 60 -11 19 -2 46 -7
60 -9 25 -5 34 -6 135 -20 91 -13 138 -18 325 -32 185 -14 724 -6 840 12 14 2
69 9 124 15 54 7 106 13 115 15 9 1 38 6 64 9 27 4 59 9 70 12 287 54 464 100
772 199 47 15 310 117 364 141 96 44 383 186 441 219 36 21 79 45 95 55 119
68 320 200 425 280 165 124 205 154 210 160 3 3 32 28 65 55 256 213 574 550
791 840 274 365 509 790 664 1201 29 76 58 155 66 174 16 44 83 261 89 288 2
12 13 54 24 94 11 40 29 114 40 163 19 86 23 104 36 185 3 19 8 42 10 50 2 8
7 35 10 60 3 25 7 52 10 60 2 8 6 40 9 70 3 30 8 73 11 95 36 266 40 784 9
1065 -10 96 -21 182 -35 275 -18 116 -19 127 -34 200 -8 39 -16 81 -19 95 -2
14 -11 52 -19 85 -9 33 -18 71 -21 85 -2 14 -23 88 -45 165 -166 581 -437
1123 -810 1625 -47 63 -87 117 -90 120 -4 3 -24 27 -46 54 -21 27 -48 60 -60
72 -11 12 -40 46 -65 75 -124 147 -437 444 -625 593 -33 26 -68 54 -78 62 -18
15 -119 89 -162 120 -11 7 -36 25 -55 39 -19 14 -43 28 -52 31 -10 4 -18 10
-18 15 0 5 -6 9 -14 9 -8 0 -16 4 -18 8 -3 7 -197 127 -298 184 -245 139 -664
320 -905 393 -74 23 -67 21 -85 28 -61 23 -437 113 -560 133 -25 5 -47 8 -50
9 -10 2 -106 17 -135 20 -16 2 -46 6 -65 9 -192 27 -375 38 -638 40 -117 1
-214 1 -215 0z"/>
</g>
</svg>
